<mxfile host="app.diagrams.net" agent="Mozilla/5.0 (Windows NT 10.0; Win64; x64) AppleWebKit/537.36 (KHTML, like Gecko) Chrome/130.0.0.0 Safari/537.36 Edg/130.0.0.0" version="24.8.4">
  <diagram name="Page-1" id="e7e014a7-5840-1c2e-5031-d8a46d1fe8dd">
    <mxGraphModel dx="1140" dy="1351" grid="1" gridSize="10" guides="1" tooltips="1" connect="1" arrows="1" fold="1" page="1" pageScale="1" pageWidth="1169" pageHeight="826" background="none" math="0" shadow="0">
      <root>
        <mxCell id="0" />
        <mxCell id="1" parent="0" />
        <mxCell id="2" value="Khách hàng" style="swimlane;whiteSpace=wrap" parent="1" vertex="1">
          <mxGeometry x="60" y="128" width="510" height="1082" as="geometry" />
        </mxCell>
        <mxCell id="5" value="" style="ellipse;shape=startState;fillColor=#000000;strokeColor=#ff0000;" parent="2" vertex="1">
          <mxGeometry x="237.5" y="40" width="30" height="30" as="geometry" />
        </mxCell>
        <mxCell id="6" value="" style="edgeStyle=elbowEdgeStyle;elbow=horizontal;verticalAlign=bottom;endArrow=open;endSize=8;strokeColor=#FF0000;endFill=1;rounded=0;exitX=0.508;exitY=0.867;exitDx=0;exitDy=0;exitPerimeter=0;" parent="2" source="5" target="WsRlr-ffI3YgYb3vmmxB-41" edge="1">
          <mxGeometry x="100" y="40" as="geometry">
            <mxPoint x="252.72727272727252" y="110" as="targetPoint" />
          </mxGeometry>
        </mxCell>
        <mxCell id="WsRlr-ffI3YgYb3vmmxB-51" style="edgeStyle=none;curved=1;rounded=0;orthogonalLoop=1;jettySize=auto;html=1;fontSize=12;startSize=8;endSize=8;entryX=0.463;entryY=0.02;entryDx=0;entryDy=0;entryPerimeter=0;strokeColor=#ff0000;fontColor=#ff0000;" edge="1" parent="2" source="WsRlr-ffI3YgYb3vmmxB-41" target="WsRlr-ffI3YgYb3vmmxB-43">
          <mxGeometry relative="1" as="geometry">
            <mxPoint x="253" y="262" as="targetPoint" />
          </mxGeometry>
        </mxCell>
        <mxCell id="WsRlr-ffI3YgYb3vmmxB-41" value="Yêu cầu sử dụng dịch vụ" style="rounded=1;whiteSpace=wrap;html=1;" vertex="1" parent="2">
          <mxGeometry x="192.5" y="112" width="120" height="60" as="geometry" />
        </mxCell>
        <mxCell id="WsRlr-ffI3YgYb3vmmxB-43" value="Chọn dịch vụ" style="rounded=1;whiteSpace=wrap;html=1;" vertex="1" parent="2">
          <mxGeometry x="197.5" y="252" width="120" height="60" as="geometry" />
        </mxCell>
        <mxCell id="WsRlr-ffI3YgYb3vmmxB-46" value="Sử dụng dịch vụ" style="rounded=1;whiteSpace=wrap;html=1;" vertex="1" parent="2">
          <mxGeometry x="197.5" y="492" width="120" height="60" as="geometry" />
        </mxCell>
        <mxCell id="WsRlr-ffI3YgYb3vmmxB-65" value="" style="edgeStyle=none;curved=1;rounded=0;orthogonalLoop=1;jettySize=auto;html=1;fontSize=12;startSize=8;endSize=8;strokeColor=#ff0000;fontColor=#ff0000;" edge="1" parent="2" source="WsRlr-ffI3YgYb3vmmxB-50" target="38">
          <mxGeometry relative="1" as="geometry" />
        </mxCell>
        <mxCell id="WsRlr-ffI3YgYb3vmmxB-50" value="Nhận phiếu thu" style="rounded=1;whiteSpace=wrap;html=1;" vertex="1" parent="2">
          <mxGeometry x="197.5" y="852" width="120" height="60" as="geometry" />
        </mxCell>
        <mxCell id="38" value="" style="ellipse;shape=endState;fillColor=#000000;strokeColor=#ff0000" parent="2" vertex="1">
          <mxGeometry x="242.5" y="1012" width="30" height="30" as="geometry" />
        </mxCell>
        <mxCell id="4" value="Nhân viên" style="swimlane;whiteSpace=wrap" parent="1" vertex="1">
          <mxGeometry x="570" y="128" width="500" height="1082" as="geometry" />
        </mxCell>
        <mxCell id="WsRlr-ffI3YgYb3vmmxB-53" style="edgeStyle=none;curved=1;rounded=0;orthogonalLoop=1;jettySize=auto;html=1;entryX=0.5;entryY=0;entryDx=0;entryDy=0;fontSize=12;startSize=8;endSize=8;strokeColor=#ff0000;fontColor=#ff0000;" edge="1" parent="4" source="WsRlr-ffI3YgYb3vmmxB-42" target="WsRlr-ffI3YgYb3vmmxB-44">
          <mxGeometry relative="1" as="geometry" />
        </mxCell>
        <mxCell id="WsRlr-ffI3YgYb3vmmxB-42" value="Cung cấp danh sách dịch vụ" style="rounded=1;whiteSpace=wrap;html=1;" vertex="1" parent="4">
          <mxGeometry x="195" y="112" width="120" height="60" as="geometry" />
        </mxCell>
        <mxCell id="WsRlr-ffI3YgYb3vmmxB-44" value="Cung cấp thông tin dịch vụ" style="rounded=1;whiteSpace=wrap;html=1;" vertex="1" parent="4">
          <mxGeometry x="195" y="255" width="120" height="60" as="geometry" />
        </mxCell>
        <mxCell id="WsRlr-ffI3YgYb3vmmxB-45" value="Cung cấp dịch vụ" style="rounded=1;whiteSpace=wrap;html=1;" vertex="1" parent="4">
          <mxGeometry x="195" y="382" width="120" height="60" as="geometry" />
        </mxCell>
        <mxCell id="WsRlr-ffI3YgYb3vmmxB-62" value="" style="edgeStyle=none;curved=1;rounded=0;orthogonalLoop=1;jettySize=auto;html=1;fontSize=12;startSize=8;endSize=8;strokeColor=#ff0000;fontColor=#ff0000;" edge="1" parent="4" source="WsRlr-ffI3YgYb3vmmxB-47" target="WsRlr-ffI3YgYb3vmmxB-48">
          <mxGeometry relative="1" as="geometry" />
        </mxCell>
        <mxCell id="WsRlr-ffI3YgYb3vmmxB-47" value="Lập phiếu thu" style="rounded=1;whiteSpace=wrap;html=1;" vertex="1" parent="4">
          <mxGeometry x="195" y="592" width="120" height="60" as="geometry" />
        </mxCell>
        <mxCell id="WsRlr-ffI3YgYb3vmmxB-63" value="" style="edgeStyle=none;curved=1;rounded=0;orthogonalLoop=1;jettySize=auto;html=1;fontSize=12;startSize=8;endSize=8;strokeColor=#ff0000;fontColor=#ff0000;" edge="1" parent="4" source="WsRlr-ffI3YgYb3vmmxB-48" target="WsRlr-ffI3YgYb3vmmxB-49">
          <mxGeometry relative="1" as="geometry" />
        </mxCell>
        <mxCell id="WsRlr-ffI3YgYb3vmmxB-48" value="In và sao lưu" style="rounded=1;whiteSpace=wrap;html=1;" vertex="1" parent="4">
          <mxGeometry x="195" y="722" width="120" height="60" as="geometry" />
        </mxCell>
        <mxCell id="WsRlr-ffI3YgYb3vmmxB-49" value="Giao phiếu thu" style="rounded=1;whiteSpace=wrap;html=1;" vertex="1" parent="4">
          <mxGeometry x="195" y="852" width="120" height="60" as="geometry" />
        </mxCell>
        <mxCell id="WsRlr-ffI3YgYb3vmmxB-52" style="edgeStyle=none;curved=1;rounded=0;orthogonalLoop=1;jettySize=auto;html=1;fontSize=12;startSize=8;endSize=8;strokeColor=#ff0000;fontColor=#ff0000;" edge="1" parent="1" source="WsRlr-ffI3YgYb3vmmxB-41" target="WsRlr-ffI3YgYb3vmmxB-42">
          <mxGeometry relative="1" as="geometry" />
        </mxCell>
        <mxCell id="WsRlr-ffI3YgYb3vmmxB-54" style="edgeStyle=none;curved=1;rounded=0;orthogonalLoop=1;jettySize=auto;html=1;entryX=1;entryY=0.5;entryDx=0;entryDy=0;fontSize=12;startSize=8;endSize=8;strokeColor=#ff0000;fontColor=#ff0000;" edge="1" parent="1" source="WsRlr-ffI3YgYb3vmmxB-44" target="WsRlr-ffI3YgYb3vmmxB-43">
          <mxGeometry relative="1" as="geometry" />
        </mxCell>
        <mxCell id="WsRlr-ffI3YgYb3vmmxB-59" style="edgeStyle=orthogonalEdgeStyle;rounded=0;orthogonalLoop=1;jettySize=auto;html=1;fillColor=#FF1C03;strokeColor=#FF3300;entryX=0;entryY=0.5;entryDx=0;entryDy=0;exitX=0.5;exitY=1;exitDx=0;exitDy=0;" edge="1" parent="1" source="WsRlr-ffI3YgYb3vmmxB-43" target="WsRlr-ffI3YgYb3vmmxB-45">
          <mxGeometry relative="1" as="geometry">
            <mxPoint x="370" y="590" as="sourcePoint" />
            <mxPoint x="310" y="460" as="targetPoint" />
          </mxGeometry>
        </mxCell>
        <mxCell id="WsRlr-ffI3YgYb3vmmxB-60" style="edgeStyle=orthogonalEdgeStyle;rounded=0;orthogonalLoop=1;jettySize=auto;html=1;exitX=0.5;exitY=1;exitDx=0;exitDy=0;fillColor=#FF1C03;strokeColor=#FF3300;entryX=1;entryY=0.5;entryDx=0;entryDy=0;" edge="1" parent="1" source="WsRlr-ffI3YgYb3vmmxB-45" target="WsRlr-ffI3YgYb3vmmxB-46">
          <mxGeometry relative="1" as="geometry">
            <mxPoint x="1005" y="734" as="sourcePoint" />
            <mxPoint x="320" y="680" as="targetPoint" />
          </mxGeometry>
        </mxCell>
        <mxCell id="WsRlr-ffI3YgYb3vmmxB-61" style="edgeStyle=orthogonalEdgeStyle;rounded=0;orthogonalLoop=1;jettySize=auto;html=1;exitX=0.5;exitY=1;exitDx=0;exitDy=0;fillColor=#FF1C03;strokeColor=#FF3300;entryX=0;entryY=0.5;entryDx=0;entryDy=0;" edge="1" parent="1" source="WsRlr-ffI3YgYb3vmmxB-46" target="WsRlr-ffI3YgYb3vmmxB-47">
          <mxGeometry relative="1" as="geometry">
            <mxPoint x="995" y="825" as="sourcePoint" />
            <mxPoint x="310" y="771" as="targetPoint" />
          </mxGeometry>
        </mxCell>
        <mxCell id="WsRlr-ffI3YgYb3vmmxB-64" style="edgeStyle=none;curved=1;rounded=0;orthogonalLoop=1;jettySize=auto;html=1;fontSize=12;startSize=8;endSize=8;entryX=1;entryY=0.5;entryDx=0;entryDy=0;strokeColor=#ff0000;fontColor=#ff0000;" edge="1" parent="1" source="WsRlr-ffI3YgYb3vmmxB-49" target="WsRlr-ffI3YgYb3vmmxB-50">
          <mxGeometry relative="1" as="geometry" />
        </mxCell>
      </root>
    </mxGraphModel>
  </diagram>
</mxfile>
